<?xml version="1.0" encoding="utf-8"?>
<!-- Generator: Adobe Illustrator 22.1.0, SVG Export Plug-In . SVG Version: 6.00 Build 0)  -->
<svg version="1.1" xmlns="http://www.w3.org/2000/svg" xmlns:xlink="http://www.w3.org/1999/xlink" x="0px" y="0px"
	 viewBox="0 0 789.8 151" style="enable-background:new 0 0 789.8 151;" xml:space="preserve">
<style type="text/css">
	.st0{display:none;}
	.st1{display:inline;fill:#FFFFFF;}
	.st2{fill:#CB3C5E;}
	.st3{font-family:'Montserrat-SemiBold';}
	.st4{font-size:39px;}
	.st5{display:none;fill:#FFFFFF;}
	.st6{fill:#FFFFFF;}
	.st7{fill:#FDD133;}
	.st8{fill:#1889AB;}
	.st9{fill:#D94043;}
	.st10{fill:#FFFFFF;stroke:#D94043;stroke-miterlimit:10;}
	.st11{fill:#3AB585;}
	.st12{fill:#97539E;}
	.st13{display:inline;}
	.st14{fill:#FFFFFF;stroke:#FFFFFF;stroke-width:2;stroke-linecap:round;stroke-linejoin:round;stroke-miterlimit:10;}
	.st15{fill:#FFFFFF;stroke:#FFFFFF;stroke-width:2;stroke-miterlimit:10;}
	
		.st16{display:inline;fill:#FFFFFF;stroke:#FFFFFF;stroke-width:2;stroke-linecap:round;stroke-linejoin:round;stroke-miterlimit:10;}
	.st17{display:inline;fill:#FFFFFF;stroke:#FFFFFF;stroke-width:2;stroke-miterlimit:10;}
	.st18{fill:#5962A6;}
	.st19{fill:#F29375;}
	.st20{display:none;opacity:0.3608;}
	.st21{display:inline;fill:#CB3C5E;}
</style>
<g id="Layer_1_xA0_Image_1_">
	
		<image style="overflow:visible;" width="596" height="479" id="Layer_1_xA0_Image" xlink:href="4F4E3297.png"  transform="matrix(1 0 0 1 874.7292 2.1231)">
	</image>
</g>
<g id="white_bg" class="st0">
	<path class="st1" d="M116.8,973.8h-10.4c-1.2,0-2.2-1-2.2-2.2v-10.4c0-1.2,1-2.2,2.2-2.2h10.4c1.2,0,2.2,1,2.2,2.2v10.4
		C119,972.8,118,973.8,116.8,973.8z"/>
</g>
<g id="open_advocacy">
</g>
<g id="open_educational_resources">
</g>
<g id="public_engagement_with_science">
</g>
<g id="open_evaluation">
</g>
<g id="open_access_to_research_papers">
</g>
<g id="open_research_software__x26__open_source_1_">
</g>
<g id="open_research_data">
</g>
<g id="reproducible_research__x26__data_analysis_1_">
</g>
<g id="Open_Collaboration">
</g>
<g id="Open_Principles">
</g>
<g id="Logo_recreation">
	<text transform="matrix(1 0 0 1 958.6127 568.3818)" style="opacity:0.74;"><tspan x="0" y="0" class="st3" style="fill:#890202; font-size:53.328px; letter-spacing:1;">Open</tspan><tspan x="-83.9" y="47" class="st3" style="fill:#890202; font-size:53.328px; letter-spacing:1;">science</tspan><tspan x="-13.3" y="94" class="st3" style="fill:#890202; font-size:53.328px;">mooc</tspan></text>
</g>
<g id="PRINCIPLES__x28_pillar_x29_">
	<g id="Layer_15_copy">
		<rect x="0.1" class="st2" width="119" height="151"/>
	</g>
	<text transform="matrix(1 0 0 1 141.2738 63.9073)"><tspan x="0" y="0" class="st3 st4">Open</tspan><tspan x="0" y="46" class="st2 st3 st4">principles</tspan></text>
	<g>
		<rect x="14.6" y="75" class="st5" width="90" height="27"/>
		<rect x="27.6" y="35" class="st6" width="63" height="9"/>
		<path class="st6" d="M82.1,57h-45c-2.5,0-4.5-2-4.5-4.5s2-4.5,4.5-4.5h45c2.5,0,4.5,2,4.5,4.5S84.5,57,82.1,57z"/>
		<g>
			<g>
				<rect x="68.6" y="62" class="st6" width="9" height="54"/>
			</g>
		</g>
		<g>
			<g>
				<rect x="54.6" y="62" class="st6" width="9" height="54"/>
			</g>
		</g>
		<g>
			<g>
				<rect x="41.6" y="62" class="st6" width="9" height="54"/>
			</g>
		</g>
	</g>
</g>
<g id="COLLABORATION">
	<text transform="matrix(1 0 0 1 140.7293 277.3016)"><tspan x="0" y="0" class="st3 st4">Open</tspan><tspan x="0" y="46" class="st6 st3 st4">collaboration</tspan></text>
	<g id="Layer_15_copy_3">
		<rect y="215.4" class="st7" width="119" height="151"/>
	</g>
	<g id="collaboration_people_2_">
		<g>
			<path class="st6" d="M99.4,300.2c-2,11.1-8.5,20.6-17.5,26.6l1.4,3c10.1-6.6,17.3-17.2,19.4-29.5H99.4z"/>
			<path class="st6" d="M36.3,330l1.5-2.9c-9.3-6-16-15.6-18.1-26.9h-3.3C18.5,312.7,25.9,323.5,36.3,330z"/>
			<path class="st6" d="M59.6,252.4c7.6,0,14.7,2.1,20.7,5.7l3.2-1.8c-6.9-4.5-15.1-7.1-23.9-7.1c-8.7,0-16.7,2.5-23.5,6.9l3.2,1.9
				C45.2,254.4,52.2,252.4,59.6,252.4z"/>
			<path class="st6" d="M29.9,296.1c5.5,0,10.7-2,14.8-5.5c0.4-0.3,0.6-0.7,0.6-1.2c0-0.1,0-0.3-0.1-0.4l0,0c-1.5-5.3-6.5-9-12-9
				h-1.1c4.1-1,7.1-4.7,7.1-9.1c0-5.2-4.2-9.4-9.4-9.4c-5.2,0-9.4,4.2-9.4,9.4c0,4.4,3,8.1,7.1,9.1h-1.2c-5.5,0-10.4,3.7-12,9l0,0
				c0,0.1-0.1,0.3-0.1,0.4c0,0.4,0.2,0.8,0.5,1.1l0,0C19.1,294.1,24.4,296.1,29.9,296.1z M43.9,289.4L43.9,289.4L43.9,289.4
				L43.9,289.4z"/>
			<path class="st6" d="M104.5,289.4c0-0.1,0-0.3-0.1-0.4l0,0c-1.5-5.3-6.5-9-12-9h-1.1c4.1-1,7.1-4.7,7.1-9.1
				c0-5.2-4.2-9.4-9.4-9.4s-9.4,4.2-9.4,9.4c0,4.4,3,8.1,7.1,9.1h-1.2c-5.3,0-10.1,3.5-11.8,8.5c-0.1,0.2-0.1,0.3-0.2,0.5l0,0
				c0,0.1-0.1,0.3-0.1,0.4c0,0.3,0.1,0.6,0.3,0.9c0.1,0.1,0.1,0.2,0.2,0.2l0,0c4.1,3.6,9.4,5.6,14.9,5.6c5.4,0,10.7-2,14.8-5.5
				C104.3,290.3,104.5,289.9,104.5,289.4z M103,289.4L103,289.4L103,289.4L103,289.4z"/>
			<path class="st6" d="M75,327.7c0-0.1,0-0.3-0.1-0.4l0,0c-1.5-5.3-6.5-9-12-9h-1.1c4.1-1,7.1-4.7,7.1-9.1c0-4-2.5-7.4-6.1-8.8
				c-1-0.4-2.1-0.6-3.3-0.6c-1,0-2,0.2-2.9,0.5c-3.7,1.2-6.5,4.7-6.5,8.9c0,4.4,3,8.1,7.1,9.1h-1.2c-5.5,0-10.4,3.7-12,9l0,0
				c0,0.1-0.1,0.3-0.1,0.4c0,0.4,0.2,0.8,0.5,1.1l0,0c4.1,3.6,9.4,5.6,14.9,5.6c5.5,0,10.7-2,14.8-5.5C74.8,328.6,75,328.2,75,327.7
				z M45.6,327.7L45.6,327.7L45.6,327.7L45.6,327.7z"/>
		</g>
	</g>
	<text transform="matrix(1 0 0 1 140.832 323.4095)" class="st3 st4" style="fill:#B58F23;">COLLABORATION</text>
</g>
<g id="REPRODUCIBLE_RESEARCH__x26__DATA_ANALYSIS">
	<text transform="matrix(1 0 0 1 141.1643 476.3484)"><tspan x="0" y="0" class="st8 st3 st4">REPRODUCIBLE </tspan><tspan x="0" y="46" class="st8 st3 st4">RESEARCH </tspan></text>
	<g id="module_block">
		<rect y="431.6" class="st8" width="119" height="151"/>
	</g>
	<text transform="matrix(1 0 0 1 143.2738 562)" class="st3" style="fill:#707070; font-size:29px;">&amp; DATA ANALYSIS</text>
	<path id="copy_icon" class="st5" d="M360.6,488.4v-28.6h-50.7V524h22.6v28.6h50.7v-64.1H360.6z M319.3,517.5v-48.3h31.9v20h-18.7
		v28.3L319.3,517.5L319.3,517.5z M373.7,546.2h-31.9v-50.6h31.9V546.2z"/>
	<path id="stack_icon_1_" class="st6" d="M94.5,508.9c0-0.9-0.3-1.5-0.9-1.8L80,498.3l13.6-8.9c0.6-0.9,0.9-1.5,0.9-2.4
		s-0.3-1.5-0.9-1.8l-33.4-21.8c-0.9-0.6-1.8-0.6-2.4,0l-33.4,21.8c-0.6,0.3-0.9,1.2-0.9,1.8c0,0.9,0.3,1.5,0.9,1.8l13.6,8.9
		l-13.6,8.9c-0.6,0.9-0.9,1.5-0.9,2.4c0,0.9,0.3,1.5,0.9,1.8l13.6,8.9l-13.6,8.9c-0.6,0.9-0.9,1.5-0.9,2.4c0,0.9,0.3,1.5,0.9,1.8
		l33.1,21.8c0.3,0.3,0.9,0.3,1.2,0.3c0.3,0,0.9,0,1.2-0.3l33.6-21.8c0.6-0.3,0.9-1.2,0.9-1.8c0-0.6-0.3-1.5-0.9-1.8L80,520.1
		l13.6-8.9C94.2,510.4,94.5,509.8,94.5,508.9z M75.6,522.5l12.4,8.3l-28.9,18.9l-28.9-19.2l12.4-8.3l15.3,10
		c0.3,0.3,0.9,0.3,1.2,0.3s0.9,0,1.2-0.3L75.6,522.5z M59.1,528.1l-28.9-19.2l12.4-8.3l15.3,10c0.3,0.3,0.9,0.3,1.2,0.3
		s0.9,0,1.2-0.3l15.3-10l12.4,8.3L59.1,528.1z"/>
</g>
<g id="OPEN_RESEARCH_DATA_1_">
	<text id="OPEN_RESEARCH_DATA_7_" transform="matrix(1 0 0 1 141.1643 710.4158)"><tspan x="0" y="0" class="st3 st4">OPEN</tspan><tspan x="0" y="46" class="st9 st3 st4">RESEARCH DATA</tspan></text>
	<g id="module_block_copy">
		<rect y="647.5" class="st9" width="119" height="151"/>
	</g>
	<path id="cloud_fill" class="st5" d="M316.5,713.6l6.7-19.2l7.1-3.3l8.9-6.2l10-3.5l13.4,6.3l3.7,6.6l2.3,3.3c0,0,26.9,17.7-4,29.8
		C364.4,727.3,318.8,736.9,316.5,713.6z"/>
	<path class="st5" d="M314,713.3c0,8.2,6.3,15.2,14.2,15.7h0.1h37.1h0.1c8.8-0.6,15.7-8.2,15.7-17.2c0-7.8-5.3-14.7-12.5-16.7
		c-1.6-9.3-9.7-16.2-19.3-16.2c-7,0-13.4,3.7-16.9,9.7c-0.6-0.1-1.3-0.2-1.9-0.2c-6,0-10.9,4.9-10.9,10.9c0,0.7,0.1,1.4,0.2,2.1
		C316.3,704.1,314,708.6,314,713.3z M323.6,704.1c0.9-0.5,1.3-1.6,0.9-2.6c-0.3-0.7-0.4-1.5-0.4-2.3c0-3.6,3-6.6,6.6-6.6
		c0.8,0,1.5,0.1,2.2,0.4c1,0.4,2.2-0.1,2.7-1.1c2.5-5.4,8-8.8,13.9-8.8c8,0,14.5,6,15.3,13.9c0.1,1,0.8,1.7,1.8,1.9
		c6,1,10.5,6.6,10.5,12.9c0,6.7-5.3,12.5-11.7,13h-37c-5.5-0.3-10.1-5.6-10.1-11.4C318.3,709.5,320.3,706,323.6,704.1z M347.7,734.8
		c-1.2,0-2.1,1-2.1,2.1v21.6c-2.6,0.9-4.5,3.3-4.6,6.2c-0.1,3.7,2.8,6.8,6.5,6.8h0.2c3.6,0,6.6-2.9,6.7-6.5c0-1.8-0.6-3.5-1.8-4.8
		c-0.8-0.8-1.7-1.4-2.7-1.7v-21.6C349.8,735.7,348.9,734.8,347.7,734.8z M347.7,767.3L347.7,767.3c-1.4,0-2.5-1.2-2.4-2.5
		c0-1.3,1.1-2.4,2.4-2.4h0.1c0.7,0,1.3,0.3,1.7,0.8c0.4,0.5,0.7,1.1,0.7,1.7C350.1,766.2,349,767.3,347.7,767.3z M327.2,754.6h5.3
		c4,0,7.2-3.2,7.2-7.2v-10.5c0-1.2-1-2.1-2.1-2.1c-1.2,0-2.1,1-2.1,2.1v10.4c0,1.7-1.3,3-3,3h-5.3c-0.9-2.6-3.4-4.6-6.3-4.6
		c-3.7,0-6.7,3-6.7,6.7c0,3.7,3,6.7,6.7,6.7C323.8,759.1,326.3,757.2,327.2,754.6z M318.4,752.4c0-1.3,1.1-2.4,2.4-2.4
		s2.4,1.1,2.4,2.4c0,1.3-1.1,2.4-2.4,2.4C319.5,754.9,318.4,753.8,318.4,752.4z M357.8,734.8c-1.2,0-2.1,1-2.1,2.1v10.4
		c0,4,3.2,7.2,7.2,7.2h5.3c0.9,2.6,3.4,4.6,6.3,4.6c3.7,0,6.7-3,6.7-6.7c0-3.7-3-6.7-6.7-6.7c-2.9,0-5.4,1.9-6.3,4.6h-5.3
		c-1.7,0-3-1.3-3-3v-10.4C359.9,735.7,359,734.8,357.8,734.8z M374.5,750c1.3,0,2.4,1.1,2.4,2.4s-1.1,2.4-2.4,2.4
		c-1.3,0-2.4-1.1-2.4-2.4S373.2,750,374.5,750z"/>
	<path class="st10" d="M42.6,739h-28v-15h28V739z M44.6,739h30v-15h-30V739z M44.6,756h30v-15h-30V756z M42.6,707h-28v15h28V707z
		 M44.6,722h30v-15h-30V722z M97.6,690h-76c-3.9,0-7,3.1-7,7v8h90v-8C104.6,693.1,101.4,690,97.6,690z M76.6,722h28v-15h-28V722z
		 M42.6,741h-28v8c0,3.9,3.1,7,7,7h21V741z M76.6,739h28v-15h-28V739z M76.6,756h21c3.9,0,7-3.1,7-7v-8h-28V756z"/>
</g>
<g id="OPEN_RESEARCH_SOFTWARE">
	<text id="OPEN_RESEARCH_DATA_8_" transform="matrix(1 0 0 1 141.2739 904.5962)"><tspan x="0" y="0" class="st3 st4">open</tspan><tspan x="0" y="46" class="st3 st4" style="fill:#37A576;">research software</tspan></text>
	<g id="module_block_copy_2">
		<rect y="863" class="st11" width="119" height="151"/>
	</g>
	<text transform="matrix(1 0 0 1 143.2736 990.1582)" class="st3" style="fill:#707070; font-size:29px;">&amp; open source</text>
	<g id="laptop">
		<path class="st6" d="M91.4,907.5H28.9c-1.5,0-2.7,1.2-2.7,2.7v0.9v36.6c0,1.5,1.2,2.7,2.7,2.7h0.9h60.7h0.9c1.5,0,2.7-1.2,2.7-2.7
			v-36.6v-0.9C94,908.7,92.8,907.5,91.4,907.5z M90.5,946.7H29.8v-35.7h60.7V946.7z"/>
		<path class="st6" d="M94.1,952.1c-0.5-0.5-1.6-0.9-2.3-0.9H28.5c-0.7,0-1.8,0.4-2.3,0.9l-10.6,9.8v1.8c0,0,0,2.7,2.7,2.7h83.8
			c2.7,0,2.7-2.7,2.7-2.7v-1.8L94.1,952.1z M48.4,957.8h23.4l1.8,2.9H46.6L48.4,957.8z M66.4,962.8c0,0.5-0.4,0.9-0.9,0.9H54.8
			c-0.5,0-0.9-0.4-0.9-0.9v-0.9h12.5L66.4,962.8L66.4,962.8z"/>
	</g>
</g>
<g id="OPEN_ACCESS">
	<text id="OPEN_RESEARCH_DATA_6_" transform="matrix(1 0 0 1 141.2739 1139.0895)"><tspan x="0" y="0" class="st3 st4">open ACCESS</tspan><tspan x="0" y="46" class="st12 st3 st4">TO RESEARCH PAPERS</tspan></text>
	<g id="module_block_copy_3">
		<rect y="1079.5" class="st12" width="119" height="151"/>
	</g>
	<g id="papers_1_">
		<path class="st6" d="M101.3,1129.3c0-0.1-0.1-0.3-0.1-0.4c0-0.1-0.1-0.3-0.1-0.4c-0.1-0.1-0.1-0.3-0.2-0.4c0-0.1-0.1-0.1-0.1-0.2
			c-0.1-0.1-0.2-0.2-0.2-0.4c-0.2-0.3-0.5-0.6-0.8-0.8c-0.1-0.1-0.2-0.2-0.4-0.3c-0.1,0-0.1-0.1-0.2-0.1c-0.1-0.1-0.3-0.1-0.4-0.2
			c-0.1-0.1-0.3-0.1-0.4-0.2l-18.1-6.1l-0.7-4.9c-0.3-2.5-2.7-4.2-5.2-3.8l-14.3,1.9l-10.8-3.7c-0.4-0.1-0.9-0.2-1.4-0.2
			c-0.1,0-0.3,0-0.4,0c-0.1,0-0.1,0-0.2,0c-1,0.1-1.9,0.5-2.6,1.1c-0.6,0.5-1,1.1-1.2,1.9l-1.2,3.3l-19.4,2.6
			c-2.5,0.4-4.3,2.6-4,5.1l5.6,41.6l-5.7,15.8c-0.1,0.2-0.1,0.4-0.2,0.7c-0.1,0.3-0.1,0.6-0.1,0.9c0,0.2,0,0.4,0.1,0.6
			c0,0.1,0.1,0.3,0.1,0.4c0,0.1,0,0.1,0.1,0.2c0.1,0.3,0.2,0.5,0.4,0.8c0,0.1,0.1,0.1,0.1,0.2c0.1,0.2,0.3,0.5,0.5,0.7
			c0.1,0.1,0.2,0.2,0.3,0.3c0.2,0.1,0.3,0.3,0.5,0.4c0.1,0,0.1,0.1,0.2,0.1c0.1,0.1,0.3,0.1,0.4,0.2c0.1,0.1,0.3,0.1,0.4,0.2l6,2
			l0.9,6.5c0.3,2.5,2.7,4.2,5.2,3.8l17.4-2.4l19.5,6.6c0.2,0.1,0.4,0.1,0.7,0.2c0.2,0,0.4,0.1,0.7,0.1c0.4,0,0.7,0,1.1-0.1
			c0.2,0,0.4-0.1,0.6-0.2c0.2-0.1,0.4-0.2,0.6-0.3c0.3-0.1,0.5-0.3,0.7-0.5c0.6-0.5,1.1-1.2,1.4-2l2.7-7.6l6-0.8
			c2.5-0.3,4.3-2.6,4-5.1l-2.2-15.8l0.3-0.9l13.6-38.1c0.1-0.3,0.2-0.6,0.2-0.9c0-0.1,0-0.3,0-0.4c0-0.3,0-0.6-0.1-0.9
			C101.4,1129.4,101.4,1129.3,101.3,1129.3z M75,1115.1c0.2,0,0.4,0.1,0.5,0.4l0.4,2.9l-7-2.4L75,1115.1z M23.2,1122.6
			c0-0.2,0.1-0.4,0.4-0.5l17.2-2.3l-4,11.3l-6.3,0.9l0.6,4.1l4.2-0.6l-7.4,20.8L23.2,1122.6z M33.4,1194.5c-0.2,0-0.4-0.1-0.5-0.4
			l-0.6-4.4l5.3,1.8l5,1.7L33.4,1194.5z M85.2,1187.1c0,0.2-0.1,0.4-0.4,0.5l-3.9,0.5l2.5-7l0.6-1.8L85.2,1187.1z M97.2,1130.3
			l-14.3,39.9l-6.6,18.4l-3.6,10c-0.1,0.1-0.2,0.3-0.4,0.3c-0.1,0-0.1,0-0.2,0l-11.7-4l-33.2-11.3l-4-1.4c0,0-0.1,0-0.1,0
			c0,0,0,0-0.1-0.1c0,0-0.1-0.1-0.1-0.1c-0.1-0.1-0.1-0.2,0-0.3l2.9-8.2l3.1-8.5l16.5-46l1.6-4.3l0.5-1.3c0,0,0-0.1,0-0.1
			c0.1-0.1,0.2-0.2,0.3-0.2c0.1,0,0.1,0,0.2,0l3,1l8.7,2.9L74,1122l6.9,2.3l16.1,5.5c0,0,0.1,0,0.1,0c0.1,0,0.1,0.1,0.2,0.2
			C97.3,1130.1,97.3,1130.2,97.2,1130.3z"/>
		<polygon class="st6" points="48.2,1128.9 86,1141.7 87.4,1137.9 49.6,1125.1 		"/>
		<polygon class="st6" points="44.1,1140.5 81.9,1153.4 83.3,1149.5 45.5,1136.7 		"/>
		<polygon class="st6" points="40,1152 77.8,1164.8 79.2,1160.9 41.4,1148.1 		"/>
		<polygon class="st6" points="35.8,1163.8 73.5,1176.6 74.9,1172.7 37.2,1159.9 		"/>
		<polygon class="st6" points="32.3,1173.5 70.1,1186.3 71.5,1182.4 33.7,1169.6 		"/>
	</g>
</g>
<g id="OPEN_EVALUATION">
	<text id="OPEN_RESEARCH_DATA_5_" transform="matrix(1 0 0 1 141.2739 1355.0895)"><tspan x="0" y="0" class="st3 st4">open</tspan><tspan x="0" y="46" class="st3 st4" style="fill:#B58F23;">evaluation</tspan></text>
	<g id="module_block_copy_4">
		<rect y="1295.5" class="st7" width="119" height="151"/>
	</g>
	<g id="star_ratings" class="st0">
		<g class="st13">
			<polygon class="st14" points="317.7,1326.9 321.9,1333.5 329.6,1335.5 324.7,1341.6 325,1349.4 317.7,1346.7 310.4,1349.4 
				310.8,1341.6 305.9,1335.5 313.5,1333.5 			"/>
			<line class="st15" x1="338" y1="1335.4" x2="366.8" y2="1335.4"/>
			<line class="st15" x1="338" y1="1343.8" x2="385.4" y2="1343.8"/>
		</g>
		<polygon class="st16" points="317.7,1354.5 321.9,1361.1 329.6,1363.1 324.7,1369.2 325,1377.1 317.7,1374.3 310.4,1377.1 
			310.8,1369.2 305.9,1363.1 313.5,1361.1 		"/>
		<line class="st17" x1="338" y1="1362.4" x2="366.8" y2="1362.4"/>
		<line class="st17" x1="338" y1="1370.9" x2="385.4" y2="1370.9"/>
		<g class="st13">
			<polygon class="st14" points="317.7,1382.2 321.9,1388.8 329.6,1390.8 324.7,1396.9 325,1404.7 317.7,1402 310.4,1404.7 
				310.8,1396.9 305.9,1390.8 313.5,1388.8 			"/>
			<line class="st15" x1="338" y1="1391.2" x2="366.8" y2="1391.2"/>
			<line class="st15" x1="338" y1="1399.6" x2="385.4" y2="1399.6"/>
		</g>
	</g>
	<g id="star_chat_bubble_icon_1_">
		<path class="st6" d="M60.2,1364.7l-0.6-1.2l-0.6,1.2c-0.3,0.6-1,1.1-1.7,1.2l-1.3,0.2l0.9,0.9c0.5,0.5,0.8,1.3,0.6,2l-0.2,1.3
			l1.2-0.6c0.4-0.2,0.8-0.2,1-0.2c0.3,0,0.7,0,1,0.2l1.2,0.6l-0.2-1.3c-0.1-0.7,0.2-1.5,0.6-2l0.9-0.9l-1.3-0.2
			C61.2,1365.8,60.5,1365.3,60.2,1364.7z"/>
		<path class="st6" d="M33.5,1334.6l-0.6-1.2l-0.6,1.2c-0.3,0.6-1,1.1-1.7,1.2l-1.3,0.2l0.9,0.9c0.5,0.5,0.8,1.3,0.6,2l-0.2,1.3
			l1.2-0.6c0.4-0.2,0.8-0.2,1-0.2s0.7,0,1,0.2l1.2,0.6l-0.2-1.3c-0.1-0.7,0.2-1.5,0.6-2l0.9-0.9l-1.3-0.2
			C34.5,1335.7,33.8,1335.2,33.5,1334.6z"/>
		<path class="st6" d="M89.9,1357.5H29.3c-3.1,0-5.6,2.5-5.6,5.6v7.5c0,3.1,2.5,5.6,5.6,5.6h48.7c0,0,0,0,0,0c0,0,0.1,0,0.1,0
			c0,0,0.1,0,0.1,0c0,0,0.1,0,0.1,0c0,0,0.1,0,0.1,0c0,0,0,0,0,0l9.4,5.2v-4.4c0-0.5,0.4-0.9,0.9-0.9h1.1c3.1,0,5.6-2.5,5.6-5.6
			v-7.5C95.5,1360,93,1357.5,89.9,1357.5z M38.6,1366.6l-1.8,1.8c0,0.1-0.1,0.2-0.1,0.3l0.4,2.5c0.1,0.4,0,0.8-0.3,1.1
			c-0.2,0.3-0.6,0.4-0.9,0.4c-0.2,0-0.5-0.1-0.7-0.2l-2.3-1.2c0,0-0.1,0-0.2,0c-0.1,0-0.1,0-0.2,0l-2.3,1.2
			c-0.6,0.3-1.2,0.2-1.6-0.2c-0.2-0.3-0.3-0.7-0.3-1.1l0.4-2.5c0-0.1-0.1-0.3-0.1-0.3l-1.8-1.8c-0.4-0.4-0.5-0.9-0.4-1.3
			c0.1-0.5,0.6-0.8,1.1-0.8l2.5-0.4c0.1,0,0.2-0.1,0.3-0.2l1.1-2.3c0.2-0.5,0.7-0.8,1.1-0.8s0.9,0.3,1.1,0.8l1.1,2.3
			c0,0.1,0.2,0.2,0.3,0.2l2.5,0.4c0.5,0.1,0.9,0.4,1.1,0.8C39.2,1365.7,39,1366.2,38.6,1366.6z M52,1366.6l-1.8,1.8
			c0,0.1-0.1,0.2-0.1,0.3l0.4,2.5c0.1,0.4,0,0.8-0.3,1.1c-0.2,0.3-0.6,0.4-0.9,0.4c-0.2,0-0.5-0.1-0.7-0.2l-2.3-1.2c0,0-0.1,0-0.2,0
			c-0.1,0-0.1,0-0.2,0l-2.3,1.2c-0.6,0.3-1.2,0.2-1.6-0.2c-0.2-0.3-0.3-0.7-0.3-1.1l0.4-2.5c0-0.1,0-0.3-0.1-0.3l-1.8-1.8
			c-0.4-0.4-0.5-0.9-0.4-1.3c0.1-0.5,0.6-0.8,1.1-0.8l2.5-0.4c0.1,0,0.2-0.1,0.3-0.2l1.1-2.3c0.2-0.5,0.7-0.8,1.1-0.8
			c0.5,0,0.9,0.3,1.1,0.8l1.1,2.3c0,0.1,0.2,0.2,0.3,0.2l2.5,0.4c0.5,0.1,0.9,0.4,1.1,0.8C52.5,1365.7,52.4,1366.2,52,1366.6z
			 M65.3,1366.6l-1.8,1.8c0,0.1-0.1,0.2-0.1,0.3l0.4,2.5c0.1,0.4,0,0.8-0.3,1.1c-0.2,0.3-0.5,0.4-0.9,0.4c-0.2,0-0.5-0.1-0.7-0.2
			l-2.3-1.2c0,0-0.1,0-0.2,0c-0.1,0-0.1,0-0.2,0l-2.3,1.2c-0.6,0.3-1.2,0.2-1.6-0.2c-0.2-0.3-0.3-0.7-0.3-1.1l0.4-2.5
			c0-0.1-0.1-0.3-0.1-0.3l-1.8-1.8c-0.4-0.4-0.5-0.9-0.4-1.3c0.1-0.5,0.6-0.8,1.1-0.8l2.5-0.4c0.1,0,0.2-0.1,0.3-0.2l1.1-2.3
			c0.2-0.5,0.7-0.8,1.1-0.8s0.9,0.3,1.1,0.8l1.1,2.3c0,0.1,0.2,0.2,0.3,0.2l2.5,0.4c0.5,0.1,0.9,0.4,1.1,0.8
			C65.9,1365.7,65.7,1366.2,65.3,1366.6z"/>
		<path class="st6" d="M46.8,1334.6l-0.6-1.2l-0.6,1.2c-0.3,0.6-1,1.1-1.7,1.2l-1.3,0.2l0.9,0.9c0.5,0.5,0.8,1.3,0.6,2l-0.2,1.3
			l1.2-0.6c0.4-0.2,0.8-0.2,1-0.2s0.7,0,1,0.2l1.2,0.6l-0.2-1.3c-0.1-0.7,0.2-1.5,0.6-2l0.9-0.9l-1.3-0.2
			C47.8,1335.7,47.1,1335.2,46.8,1334.6z"/>
		<path class="st6" d="M89.9,1387.6H29.3c-3.1,0-5.6,2.5-5.6,5.6v7.5c0,3.1,2.5,5.6,5.6,5.6h1.1c0.3,0,0.5,0.1,0.7,0.3
			c0.2,0.2,0.3,0.4,0.3,0.7v4.4l9.4-5.2c0,0,0,0,0,0c0,0,0.1,0,0.1,0s0.1,0,0.1,0c0,0,0.1,0,0.1,0c0,0,0.1,0,0.1,0c0,0,0,0,0,0h48.7
			c3.1,0,5.6-2.5,5.6-5.6v-7.5C95.5,1390.1,93,1387.6,89.9,1387.6z M38.6,1396.8l-1.8,1.8c0,0.1-0.1,0.2-0.1,0.3l0.4,2.5
			c0.1,0.4,0,0.8-0.3,1.1c-0.2,0.3-0.6,0.4-0.9,0.4c-0.2,0-0.5-0.1-0.7-0.2l-2.3-1.2c0,0-0.1,0-0.2,0c-0.1,0-0.1,0-0.2,0l-2.3,1.2
			c-0.2,0.1-0.5,0.2-0.7,0.2c-0.4,0-0.7-0.1-0.9-0.4c-0.2-0.3-0.3-0.7-0.3-1.1l0.4-2.5c0-0.1-0.1-0.3-0.1-0.3l-1.8-1.8
			c-0.4-0.4-0.5-0.9-0.4-1.3c0.1-0.5,0.6-0.8,1.1-0.8l2.5-0.4c0.1,0,0.2-0.1,0.3-0.2l1.1-2.3c0.2-0.5,0.7-0.8,1.1-0.8
			c0.5,0,0.9,0.3,1.1,0.8l1.1,2.3c0,0.1,0.2,0.2,0.3,0.2l2.5,0.4c0.5,0.1,0.9,0.4,1.1,0.8S39,1396.4,38.6,1396.8z"/>
		<path class="st6" d="M46.8,1364.7l-0.6-1.2l-0.6,1.2c-0.3,0.6-1,1.1-1.7,1.2l-1.3,0.2l0.9,0.9c0.5,0.5,0.8,1.3,0.6,2l-0.2,1.3
			l1.2-0.6c0.4-0.2,0.8-0.2,1-0.2s0.7,0,1,0.2l1.2,0.6l-0.2-1.3c-0.1-0.7,0.2-1.5,0.6-2l0.9-0.9l-1.3-0.2
			C47.8,1365.8,47.1,1365.3,46.8,1364.7z"/>
		<path class="st6" d="M33.5,1394.9l-0.6-1.2l-0.6,1.2c-0.3,0.6-1,1.1-1.7,1.2l-1.3,0.2l0.9,0.9c0.5,0.5,0.8,1.3,0.6,2l-0.2,1.3
			l1.2-0.6c0.4-0.2,0.8-0.2,1-0.2s0.7,0,1,0.2l1.2,0.6l-0.2-1.3c-0.1-0.7,0.2-1.5,0.6-2l0.9-0.9l-1.3-0.2
			C34.5,1396,33.8,1395.5,33.5,1394.9z"/>
		<path class="st6" d="M33.5,1364.7l-0.6-1.2l-0.6,1.2c-0.3,0.6-1,1.1-1.7,1.2l-1.3,0.2l0.9,0.9c0.5,0.5,0.8,1.3,0.6,2l-0.2,1.3
			l1.2-0.6c0.4-0.2,0.8-0.2,1-0.2s0.7,0,1,0.2l1.2,0.6l-0.2-1.3c-0.1-0.7,0.2-1.5,0.6-2l0.9-0.9l-1.3-0.2
			C34.5,1365.8,33.8,1365.3,33.5,1364.7z"/>
		<path class="st6" d="M86.9,1334.6l-0.6-1.2l-0.6,1.2c-0.3,0.6-1,1.1-1.7,1.2l-1.3,0.2l0.9,0.9c0.5,0.5,0.8,1.3,0.6,2l-0.2,1.3
			l1.2-0.6c0.4-0.2,0.8-0.2,1-0.2c0.3,0,0.7,0,1,0.2l1.2,0.6l-0.2-1.3c-0.1-0.7,0.2-1.5,0.6-2l0.9-0.9l-1.3-0.2
			C87.9,1335.7,87.2,1335.2,86.9,1334.6z"/>
		<path class="st6" d="M73.5,1334.6l-0.6-1.2l-0.6,1.2c-0.3,0.6-1,1.1-1.7,1.2l-1.3,0.2l0.9,0.9c0.5,0.5,0.8,1.3,0.6,2l-0.2,1.3
			l1.2-0.6c0.4-0.2,0.8-0.2,1-0.2c0.3,0,0.7,0,1,0.2l1.2,0.6l-0.2-1.3c-0.1-0.7,0.2-1.5,0.6-2l0.9-0.9l-1.3-0.2
			C74.5,1335.7,73.8,1335.2,73.5,1334.6z"/>
		<path class="st6" d="M89.9,1327.3H29.3c-3.1,0-5.6,2.5-5.6,5.6v7.5c0,3.1,2.5,5.6,5.6,5.6h1.1c0.3,0,0.5,0.1,0.7,0.3
			c0.2,0.2,0.3,0.4,0.3,0.7v4.4l9.4-5.2c0,0,0,0,0,0c0,0,0.1,0,0.1,0c0,0,0.1,0,0.1,0c0,0,0.1,0,0.1,0c0,0,0.1,0,0.1,0c0,0,0,0,0,0
			h48.7c3.1,0,5.6-2.5,5.6-5.6v-7.5C95.5,1329.8,93,1327.3,89.9,1327.3z M38.6,1336.5l-1.8,1.8c0,0.1-0.1,0.2-0.1,0.3l0.4,2.5
			c0.1,0.4,0,0.8-0.3,1.1c-0.2,0.3-0.6,0.4-0.9,0.4c-0.2,0-0.5-0.1-0.7-0.2l-2.3-1.2c0,0-0.1,0-0.2,0c-0.1,0-0.1,0-0.2,0l-2.3,1.2
			c-0.2,0.1-0.5,0.2-0.7,0.2c-0.4,0-0.7-0.2-0.9-0.4c-0.2-0.3-0.3-0.7-0.3-1.1l0.4-2.5c0-0.1-0.1-0.3-0.1-0.3l-1.8-1.8
			c-0.4-0.4-0.5-0.9-0.4-1.3c0.1-0.5,0.6-0.8,1.1-0.8l2.5-0.4c0.1,0,0.2-0.1,0.3-0.2l1.1-2.3c0.2-0.5,0.7-0.8,1.1-0.8
			c0.5,0,0.9,0.3,1.1,0.8l1.1,2.3c0,0.1,0.2,0.2,0.3,0.2l2.5,0.4c0.5,0.1,0.9,0.4,1.1,0.8C39.2,1335.6,39,1336.1,38.6,1336.5z
			 M52,1336.5l-1.8,1.8c0,0.1-0.1,0.2-0.1,0.3l0.4,2.5c0.1,0.4,0,0.8-0.3,1.1c-0.2,0.3-0.6,0.4-0.9,0.4c-0.2,0-0.5-0.1-0.7-0.2
			l-2.3-1.2c0,0-0.1,0-0.2,0s-0.1,0-0.2,0l-2.2,1.2c-0.6,0.3-1.2,0.2-1.6-0.2c-0.2-0.3-0.3-0.7-0.3-1.1l0.4-2.5
			c0-0.1-0.1-0.3-0.1-0.3l-1.8-1.8c-0.4-0.4-0.5-0.9-0.4-1.3c0.1-0.5,0.6-0.8,1.1-0.8l2.5-0.4c0.1,0,0.2-0.1,0.3-0.2l1.1-2.3
			c0.2-0.5,0.7-0.8,1.1-0.8s0.9,0.3,1.1,0.8l1.1,2.3c0,0.1,0.2,0.2,0.3,0.2l2.5,0.4c0.5,0.1,0.9,0.4,1.1,0.8
			C52.5,1335.6,52.4,1336.1,52,1336.5z M65.3,1336.5l-1.8,1.8c0,0.1-0.1,0.2-0.1,0.3l0.4,2.5c0.1,0.4,0,0.8-0.3,1.1
			c-0.2,0.3-0.5,0.4-0.9,0.4c-0.2,0-0.5-0.1-0.7-0.2l-2.3-1.2c0,0-0.1,0-0.2,0c-0.1,0-0.1,0-0.2,0l-2.3,1.2
			c-0.2,0.1-0.5,0.2-0.7,0.2c-0.4,0-0.7-0.2-0.9-0.4c-0.2-0.3-0.3-0.7-0.3-1.1l0.4-2.5c0-0.1-0.1-0.3-0.1-0.3l-1.8-1.8
			c-0.4-0.4-0.5-0.9-0.4-1.3c0.1-0.5,0.6-0.8,1.1-0.8l2.5-0.4c0.1,0,0.2-0.1,0.3-0.2l1.1-2.3c0.2-0.5,0.7-0.8,1.1-0.8
			s0.9,0.3,1.1,0.8l1.1,2.3c0,0.1,0.2,0.2,0.3,0.2l2.5,0.4c0.5,0.1,0.9,0.4,1.1,0.8C65.9,1335.6,65.7,1336.1,65.3,1336.5z
			 M78.7,1336.5l-1.8,1.8c0,0.1-0.1,0.2-0.1,0.3l0.4,2.5c0.1,0.4,0,0.8-0.3,1.1c-0.2,0.3-0.5,0.4-0.9,0.4c-0.2,0-0.5-0.1-0.7-0.2
			l-2.3-1.2c0,0-0.1,0-0.2,0c-0.1,0-0.1,0-0.2,0l-2.3,1.2c-0.2,0.1-0.5,0.2-0.7,0.2c-0.4,0-0.7-0.2-0.9-0.4
			c-0.2-0.3-0.3-0.7-0.3-1.1l0.4-2.5c0-0.1-0.1-0.3-0.1-0.3l-1.8-1.8c-0.4-0.4-0.5-0.9-0.4-1.3c0.1-0.5,0.6-0.8,1.1-0.8l2.5-0.4
			c0.1,0,0.2-0.1,0.3-0.2l1.1-2.3c0.2-0.5,0.7-0.8,1.1-0.8c0.5,0,0.9,0.3,1.1,0.8l1.1,2.3c0,0.1,0.2,0.2,0.3,0.2l2.5,0.4
			c0.5,0.1,0.9,0.4,1.1,0.8C79.2,1335.6,79.1,1336.1,78.7,1336.5z M92,1336.5l-1.8,1.8c0,0.1-0.1,0.2-0.1,0.3l0.4,2.5
			c0.1,0.4,0,0.8-0.3,1.1c-0.2,0.3-0.5,0.4-0.9,0.4c-0.2,0-0.5-0.1-0.7-0.2l-2.3-1.2c0,0-0.1,0-0.2,0s-0.1,0-0.2,0l-2.3,1.2
			c-0.2,0.1-0.5,0.2-0.7,0.2c-0.4,0-0.7-0.2-0.9-0.4c-0.2-0.3-0.3-0.7-0.3-1.1l0.4-2.5c0-0.1-0.1-0.3-0.1-0.3l-1.8-1.8
			c-0.4-0.4-0.5-0.9-0.4-1.3c0.1-0.5,0.6-0.8,1.1-0.8l2.5-0.4c0.1,0,0.2-0.1,0.3-0.2l1.1-2.3c0.2-0.5,0.7-0.8,1.1-0.8
			s0.9,0.3,1.1,0.8l1.1,2.3c0,0.1,0.2,0.2,0.3,0.2l2.5,0.4c0.5,0.1,0.9,0.4,1.1,0.8C92.6,1335.6,92.4,1336.1,92,1336.5z"/>
		<path class="st6" d="M60.2,1334.6l-0.6-1.2l-0.6,1.2c-0.3,0.6-1,1.1-1.7,1.2L56,1336l0.9,0.9c0.5,0.5,0.8,1.3,0.6,2l-0.2,1.3
			l1.2-0.6c0.4-0.2,0.8-0.2,1-0.2s0.7,0,1,0.2l1.2,0.6l-0.2-1.3c-0.1-0.7,0.2-1.5,0.6-2l0.9-0.9l-1.3-0.2
			C61.2,1335.7,60.5,1335.2,60.2,1334.6z"/>
	</g>
</g>
<g id="PUBLIC_ENGAGEMENT">
	<text id="OPEN_RESEARCH_DATA_3_" transform="matrix(1 0 0 1 141.2739 1571.0206)"><tspan x="0" y="0" class="st3 st4">PUBLIC ENGAGEMENT</tspan><tspan x="0" y="46" class="st18 st3 st4">WITH SCIENCE</tspan></text>
	<g id="module_block_copy_5">
		<rect y="1511.4" class="st18" width="119" height="151"/>
	</g>
	<g>
		<path class="st6" d="M88.5,1615.3c-3.7,3.7-8.1,6.7-13,8.7c-4.8,1.9-9.9,3-15.4,3c-5.3,0-10.6-1.1-15.3-3c-5-2-9.4-5.1-13.1-8.7
			c-7.5-7.5-11.8-17.7-11.8-28.4c0-5.3,1.1-10.6,3.1-15.3c1.9-4.9,5-9.3,8.6-13.1c3.7-3.7,8.2-6.6,13.1-8.6c4.7-2,9.9-3.1,15.3-3.1
			c5.4,0,10.6,1.1,15.4,3.1c5,2,9.3,5,13,8.6c3.8,3.8,6.7,8.3,8.7,13.1c1.9,4.7,3,9.9,3,15.3C100.3,1597.6,96.1,1607.8,88.5,1615.3z
			 M34.6,1612.5c1.3,1.3,2.5,2.3,3.9,3.4l-0.6-1.6l0.6-2.1l0.7-1.9c0,0,0-1.4-0.7-1.5c-0.7-0.2-1.9-1.4-2.3-1.4s-1.1-0.3-1.6-0.6
			c-0.4-0.3-1.2-0.6-1.5-1c-0.3-0.4-0.7-1.1-1-1.8c-0.3-0.6-0.2-0.7-0.9-1.5v-0.8l-1.1-0.4c-0.4-0.4-0.4-0.4-1-0.7
			c-0.9-0.4-1.1-0.8-1.8-1.1c-0.6-0.3-0.9-0.5-1.4-0.9C27.8,1603.9,30.8,1608.6,34.6,1612.5z M25,1579h0.4l0.9-1.1
			c0,0,0-0.8,0.5-1.7s0.4-1,0.5-1.6c0.1-0.6,0.7,0.1,1.4-2c0.1-0.4,0.2-0.7,0.3-0.9s1.7-1.2,1.8-1.4c0.6-0.8,0.4-2.1,1.7-3.4
			c1.3-1.4,0-1-1.1-0.6c-1,0.4,0.9-1.5,1.6-1.7c0.6-0.3,4.3-1.9,4.3-1.9s0.3-0.2,0.5-0.7l0.9-0.5l-0.3-1c0.1-0.5-0.3-0.6-0.6-1.5
			c-0.1-0.1-0.1-0.3-0.1-0.4C31.1,1564,26.7,1570.9,25,1579z M57.8,1562.1c2.1,0.4,2.1-0.1,1.6,1.4c0,0-0.9,0.3-1.3,0.7
			c-0.5,0.5-1.2,0.6-1.4,1.1c-0.5,1,0.5,1.5,0.5,1.5l-0.6,1.1l-0.5,0.5l-1.7,0.7c-2.1,0.8-0.3,1.9-1.6,1.9c-0.6,0-0.4,0.8-0.4,0.9
			l1.4,1.3c0,0,1.8,0.2,2.2,0.1c0.4,0,1.4-0.1,1.7-0.7c0.4-0.6,1.1-1.8,1.3-2.2c0.2-0.4,0.4-0.9,1.2-1.2c0.7-0.4,0.8-0.8,1.1-1
			c0.4-0.2,1.8-0.7,1.8-0.7s-0.1,1.4,0.3,1.6c0.2,0.1,0.9,0.3,1.7,0.6c1.3,0.4,1.4,0.1,1.3-0.5c-0.1-0.4,0.4-0.5-1.5-1.8l-0.3-1.2
			c0,0,1.7,0.7,2.2,0.8c0.6,0.2,1.7,0.8,1.7,0.8c0.4,0.6-0.4,1.2-0.1,1.6c1.8,2.8,1.5,0.3,2.6,0.1c0,0,0.8-0.7,1.2-0.9
			c0.3-0.2,0.7-0.3,1.1-0.7c0.5-0.3-0.3-1.1,0.1-1.7c0.4-0.8,1-1.1,1.4-1.3c0.3-0.2,1.5-1.1,1.5-1.1h1.5c-0.6,0.7-1.2,1.6-0.7,1.3
			c0.5-0.2,1.7,0.3,2.2,0.6c0.6,0.3,0.4,1.2,0.4,1.2s-1.5,0.2-2.3,0.2c-0.9,0-2.2,0.5-2.2,0.5l-1,0.8c0,0-0.8,0.4-0.5,1
			c0.2,0.7,0.8,1.3,1.5,1.8c0.6,0.6,1.1,1.3,1.4,0.9c0.4-0.3,1.5-1.3,1.5-1.3s-0.1,1,0.2,1.6c0.2,0.6,0.4,1.5,0.4,1.5
			s-1.3,0.2-0.9,0.4c0.4,0.2,1.1,1.1,1.4,1.4c0.8,0.7,1.5,1,2.5,2c0.6,0.6,0.2,1.9,0.7,2.6c0.5,0.7,1.8,0.7,1.9,0.8
			c0.3,0.5,0.4,1.3,0.8,1.6c0.9,0.6,2.2-0.4,2.5-0.7c1-0.9,1.8-1.7,2.7-2.5c0.7-0.6,1.1-1.1,0.7-1.4c-0.5-0.4-1.5-1.6-1.5-1.6
			c-1.1,0.4-2.3,0-2.3-0.4c-0.1-0.4-1.4-1.7-1.4-1.7s0.1-0.3,1.1,0.1c1,0.4,1.8,1.3,2.6,1.1c0.8-0.1,1.2,0.1,2.1,0.5
			c1,0.3,1.5,0.9,1.9,1.1c0.6,0.2,1.5,1.1,1.5,1.1l0.2,0.2c-0.5-1.7-1-3.3-1.7-4.9c-3.3-8.1-9.6-14.8-17.5-18.7
			c-0.4,0.3-0.8,0.6-1.1,0.4c-0.4-0.4-1.4-0.9-1.4-0.9c0.3-0.3-0.1-0.6-0.5-0.8c-0.5-0.2-0.9-0.3-1.3-0.5l-2.7,0.3
			c0,0-1.5,0.2-1.8,0.3s-1.1,0.3-1.7,0.4c-0.6,0.1-1.9,1.4-2.4,1.6c-0.5,0.2-1.5,1.1-1.9,1.1c-0.6,0.1-1.2,1.2-1.2,1.2
			s-0.6,1.7,0.1,1.4c0.8-0.3,1.7-0.7,1.8-0.3c0.2,0.4,0.8,0.9,1,1.2c0.2,0.4,1.7,0.1,1.7,0.1s0.3-0.6,0.6-1.2s0.6-1,0.6-1
			s0.8,1.2,1,1.5c0.2,0.4,0,1.6,0,1.6s-0.3,0.3-0.7,0.6h-2.2c-0.8-0.4-1.6-0.7-1.6-0.7c-0.7,0.3-1.4,0.5-1.4,0.5l-2-0.2L57.8,1562.1
			z M96.3,1587.1c-0.1,0.1-0.3,0.2-0.5,0.4c-0.6,0.4-0.8,0.9-1.5,1.5c-0.7,0.6-0.5,0.3-1.3,1.7c-0.8,1.5-0.7,1.5-0.8,2.1
			c-0.1,0.8-0.3,1.6-0.5,2c-0.2,0.4-1,0.9-1.3,1.3c-0.4,0.4-1,0.8-1.4,0.9s-1.4,1.7-1.9,1.9c-0.7,0.3-0.3,1.6-0.3,1.6l0.5,0.9
			l0.4,0.7l0.4,0.5l0.9,1.6l-0.2,1.7c0,0,1,0.5,1.5,0.4c0.2,0,0.3,0,0.4,0C94.4,1600.5,96.3,1593.9,96.3,1587.1z M77.9,1601.1
			c0.5-0.6,1.4-1.7,1.7-2.2c0.3-0.4,0.6-1.7,0.6-1.7l-2.6,0.4c-0.9-1.5-3.4-4.7-3.8-5.4c-0.5-0.7-0.9-2.1-1.1-2.7
			c-0.1-0.6-0.9-2.2-1.1-2.7c-0.1-0.4-1.2-1.7-1.5-2.1c-0.3-0.5-1.3-0.8-1.8-1.2c-0.6-0.5-4.3-1.3-4.3-1.3s-1.2-0.7-1.5-0.4
			c-1.5,1.2-4.9,0.4-5.6,0.1c-0.7-0.3-1.2-0.7-1.2-1.2c0-0.4-0.7-2.5-0.7-2.5s-1.4,0.3-1.8,0.3c-0.5,0-1.6-0.5-1.6-0.5
			s-1.5,0.1-2.1,0.4c-0.6,0.3-1.7,0.8-2.1,0.9c-0.5,0.2-1.7,0.3-1.7,0.3c-1.3-0.6-2.3,0.9-2.6,1.5c-0.3,0.6-0.9,0.9-0.9,1.6
			c0,0.6-1.1,1.5-1.5,1.7c-0.5,0.3-2,1.2-2.5,1.8c-0.4,0.8-0.9,1.7-1,2.4c-0.2,0.7-0.2,1.3-0.2,2.3c0,1-0.1,1.6,0,2.4
			c0.2,0.9,1.7,3.1,2.2,3.9c0.6,0.7,1.3,1.6,2,2c0.7,0.4,1.7,1.3,1.7,1.3s0.6,1,1.7,0.5c1.2-0.5,2.3-0.5,3.4-1.1
			c1.1-0.5,2.6-1.3,2.6-0.4c0,0.9,0.6,1.5,1.5,1.2c0.9-0.3,2.3-1,2.2,0c0,0.2,0,0.5,0,0.8l-0.1,0.4l0.2,0.8c0.1,0.4,0.2,0.8,0.2,1
			c0,0.6-0.1,1.2,0.3,1.7c0.5,0.4,1.7,1.2,1.7,1.7c0,0.4,0.1,1.8,0.4,2.4s0.6,1.6,0.3,2.1c-0.3,0.6-0.8,2.1-0.8,2.1
			s-0.3,1.4-0.2,1.7c0.2,0.5,0.6,1.1,1.3,1.7c0.8,0.8,0.8,1.7,1.2,2.2c0.5,0.6,1.3,2.3,1.3,2.3l0.9,1.5c1.7,0,3.5-0.2,5.2-0.5
			c0.3-0.2,0.5-0.4,0.6-0.5c0.6-0.6,0.5-1.1,1.3-1.7c0.7-0.6,2-1.6,2-1.6l-0.1-2.2l1.7-2.3l1.4-1.4c0,0,1.2-1.6,1-2.1
			c-0.1-0.6-0.4-3.6-0.4-3.6s0.6-1.3,1-1.8c0.5-0.7,0.5-1.4,1.4-2.1c0.3-0.2,0.5-0.5,0.8-0.7C77.3,1602.1,77.6,1601.6,77.9,1601.1z"
			/>
	</g>
</g>
<g id="OPEN_EDUCATIONAL_RESOURCES">
	<text id="OPEN_EDUCATIONAL_RESOURCES_1_" transform="matrix(1 0 0 1 141.2739 1787.0206)"><tspan x="0" y="0" class="st3 st4">open </tspan><tspan x="0" y="46" class="st3 st4" style="fill:#D17D66;">educational resources</tspan></text>
	<g id="module_block_copy_6">
		<rect y="1727.4" class="st19" width="119" height="151"/>
	</g>
	<g id="grad_cap">
		<path class="st6" d="M101.1,1833c-0.1-1.4-0.8-2.6-1.7-3.5c1.1-1,1.7-2.4,1.7-4c0-2.1-1.2-4-3-4.9v-29l7-2.5L60.3,1773l-45.2,16.2
			l45.2,15.8l32.8-11.6v27.2c-1.8,0.9-3,2.8-3,4.9c0,1.6,0.7,3,1.7,4c-0.9,0.9-1.6,2.1-1.7,3.5h0l-1,10h13L101.1,1833L101.1,1833z"
			/>
		<path class="st6" d="M60.3,1810.3l-1.7-0.6l-25.5-8.9l2,22.2c0,4.4,11.2,8,25,8s25-3.6,25-8l2-22.2l-25.1,8.9L60.3,1810.3z"/>
	</g>
</g>
<g id="ADVOCACY">
	<text id="OPEN_EDUCATIONAL_RESOURCES_3_" transform="matrix(1 0 0 1 141.2739 2003.0206)"><tspan x="0" y="0" class="st3 st4">open </tspan><tspan x="0" y="46" class="st3 st4" style="fill:#37A576;">ADVOCACY</tspan></text>
	<g id="module_block_copy_7">
		<rect y="1943.4" class="st11" width="119" height="151"/>
	</g>
</g>
<g id="Layer_45">
	
		<rect x="91.1" y="2002.8" transform="matrix(0.9357 -0.3527 0.3527 0.9357 -700.5916 163.8096)" class="st6" width="16.2" height="2.9"/>
	
		<rect x="81.6" y="1987.9" transform="matrix(0.7118 -0.7024 0.7024 0.7118 -1371.6398 635.6896)" class="st6" width="14.5" height="2.9"/>
	
		<rect x="99.8" y="2015.1" transform="matrix(5.770585e-02 -0.9983 0.9983 5.770585e-02 -1923.5435 2006.7753)" class="st6" width="2.9" height="14.5"/>
	<path class="st6" d="M44.9,2037.3l-10.1,3.8l8.5,12.8c0.4,0.6,1.1,0.8,1.7,0.6l6.9-2.6c0.4-0.2,0.7-0.5,0.9-0.9
		c0.1-0.4,0.1-0.9-0.2-1.3l-7.3-11.2L44.9,2037.3z"/>
	<path class="st6" d="M32.9,2038.7l13.7-5.2l-6.2-16.5l-13.7,5.2c-3,1.2-4.5,4.5-3.4,7.6l2.1,5.5
		C26.6,2038.3,29.9,2039.8,32.9,2038.7z"/>
	<path class="st6" d="M74.1,1987.4c-0.5-0.1-1,0-1.3,0.3l-29.8,27.5l6.8,18.1l40.6,1c0.8,0,1.5-0.6,1.5-1.4c0-0.2,0-0.4-0.1-0.6
		l-16.6-44C74.9,1987.8,74.5,1987.5,74.1,1987.4z M51.2,2019.2l-2-2.2l21.1-18.9l2,2.2L51.2,2019.2z"/>
</g>
<g id="OPEN" class="st20">
	<text transform="matrix(1 0 0 1 620.7057 -119.7787)" class="st3" style="display:inline;fill:#FF0000; font-size:52.8574px;">OPEN</text>
</g>
<g id="Layer_16">
</g>
<g id="Layer_21" class="st0">
	<rect x="1235.6" y="59.6" class="st21" width="166.9" height="82"/>
</g>
<g id="Layer_46">
</g>
<g id="guides">
</g>
</svg>
