<svg xmlns="http://www.w3.org/2000/svg" viewBox="0 0 789.82 151"><defs><style>.cls-1,.cls-10{font-size:39px;font-family:Montserrat-SemiBold, Montserrat;font-weight:700;}.cls-1,.cls-5{letter-spacing:0.02em;}.cls-2{letter-spacing:0.01em;}.cls-3{letter-spacing:0.02em;}.cls-4,.cls-9{fill:#fff;}.cls-4{letter-spacing:0.01em;}.cls-6{letter-spacing:0.03em;}.cls-7{letter-spacing:-0.01em;}.cls-8{fill:#fdd133;}.cls-10{fill:#b58f23;letter-spacing:0.01em;}.cls-11{letter-spacing:0.02em;}.cls-12{letter-spacing:0.03em;}</style></defs><title>open-collaboration</title><g id="COLLABORATION"><text class="cls-1" transform="translate(140.73 61.91)">O<tspan class="cls-2" x="33.73" y="0">P</tspan><tspan class="cls-3" x="62.56" y="0">EN</tspan><tspan class="cls-4"><tspan x="0" y="46">C</tspan><tspan class="cls-5" x="28.66" y="46">OL</tspan><tspan class="cls-6" x="86.66" y="46">L</tspan><tspan class="cls-3" x="111.11" y="46">ABOR</tspan><tspan class="cls-7" x="234.93" y="46">A</tspan><tspan class="cls-5" x="263.68" y="46">TION</tspan></tspan></text><g id="Layer_15_copy_3" data-name="Layer 15 copy 3"><rect class="cls-8" width="119" height="151"/></g><g id="collaboration_people" data-name="collaboration people"><path class="cls-9" d="M99.44,84.77a40.63,40.63,0,0,1-17.52,26.57l1.42,3a43.85,43.85,0,0,0,19.41-29.52Z"/><path class="cls-9" d="M36.29,114.61l1.49-2.92A40.57,40.57,0,0,1,19.71,84.77H16.4A43.9,43.9,0,0,0,36.29,114.61Z"/><path class="cls-9" d="M59.57,37a40.32,40.32,0,0,1,20.75,5.73l3.19-1.84A43.64,43.64,0,0,0,36,40.66l3.21,1.86A40.18,40.18,0,0,1,59.57,37Z"/><path class="cls-9" d="M30,80.68a22.6,22.6,0,0,0,14.81-5.52A1.45,1.45,0,0,0,45.37,74a1.41,1.41,0,0,0-.07-.41h0a12.58,12.58,0,0,0-12-9H32.2a9.36,9.36,0,1,0-4.5,0H26.52a12.54,12.54,0,0,0-12,9h0a1.59,1.59,0,0,0-.06.39A1.51,1.51,0,0,0,15,75.05h0A22.61,22.61,0,0,0,30,80.68Zm14-6.71Z"/><path class="cls-9" d="M104.5,74a1.41,1.41,0,0,0-.07-.41h0a12.56,12.56,0,0,0-12-9H91.33a9.37,9.37,0,1,0-4.49,0H85.65a12.54,12.54,0,0,0-11.81,8.5c0,.16-.11.32-.16.48h0a1.59,1.59,0,0,0-.06.39,1.42,1.42,0,0,0,.3.88,1.26,1.26,0,0,0,.22.24h0a22.63,22.63,0,0,0,29.75.11A1.45,1.45,0,0,0,104.5,74ZM103,74Z"/><path class="cls-9" d="M75,112.31a1.41,1.41,0,0,0-.07-.41h0a12.56,12.56,0,0,0-12-9H61.84a9.37,9.37,0,1,0-4.49,0H56.16a12.54,12.54,0,0,0-12,9h0a1.76,1.76,0,0,0-.06.4,1.49,1.49,0,0,0,.52,1.12h0a22.63,22.63,0,0,0,29.75.11A1.47,1.47,0,0,0,75,112.31Zm-29.41,0Z"/></g><text class="cls-10" transform="translate(140.83 108.02)">C<tspan class="cls-11" x="28.66" y="0">OL</tspan><tspan class="cls-12" x="86.66" y="0">L</tspan><tspan class="cls-11" x="111.11" y="0">ABOR</tspan><tspan class="cls-7" x="234.93" y="0">A</tspan><tspan class="cls-11" x="263.68" y="0">TION</tspan></text></g></svg>