<svg xmlns="http://www.w3.org/2000/svg" viewBox="0 0 789.82 151"><defs><style>.cls-1{font-size:39px;letter-spacing:0.02em;}.cls-1,.cls-9{font-family:Montserrat-SemiBold, Montserrat;font-weight:700;}.cls-2{letter-spacing:0.01em;}.cls-3{letter-spacing:0.02em;}.cls-4{fill:#37a576;}.cls-5{letter-spacing:0.03em;}.cls-6{letter-spacing:0.01em;}.cls-7{letter-spacing:-0.01em;}.cls-8{fill:#3ab585;}.cls-9{font-size:29px;fill:#707070;letter-spacing:0.02em;}.cls-10{letter-spacing:0.01em;}.cls-11{fill:#fff;}</style></defs><title>open-research-software</title><g id="OPEN_RESEARCH_SOFTWARE" data-name="OPEN RESEARCH SOFTWARE"><text class="cls-1" transform="translate(141.27 41.59)">O<tspan class="cls-2" x="33.73" y="0">P</tspan><tspan class="cls-3" x="62.56" y="0">EN</tspan><tspan class="cls-4"><tspan x="0" y="46">RESEARCH SO</tspan><tspan class="cls-5" x="300.96" y="46">F</tspan><tspan class="cls-6" x="326.9" y="46">T</tspan><tspan class="cls-7" x="350.88" y="46">W</tspan><tspan class="cls-3" x="394.95" y="46">ARE</tspan></tspan></text><g id="module_block_copy_2" data-name="module block copy 2"><rect class="cls-8" width="119" height="151"/></g><text class="cls-9" transform="translate(143.27 127.16)">&amp; O<tspan class="cls-10" x="54.9" y="0">P</tspan><tspan x="76.33" y="0">EN SOURCE</tspan></text><g id="laptop"><path class="cls-11" d="M91.37,44.5H28.93a2.68,2.68,0,0,0-2.67,2.68V84.64a2.68,2.68,0,0,0,2.67,2.68H91.37A2.68,2.68,0,0,0,94,84.64V47.18A2.67,2.67,0,0,0,91.37,44.5Zm-.89,39.24H29.83V48.07H90.48Z"/><path class="cls-11" d="M94.14,89.11a4,4,0,0,0-2.32-.9H28.49a3.93,3.93,0,0,0-2.32.9l-10.62,9.8v1.78a2.62,2.62,0,0,0,2.68,2.68h83.84a2.62,2.62,0,0,0,2.68-2.68V98.91ZM48.43,94.78H71.87l1.81,2.91H46.63Zm18,5a.89.89,0,0,1-.89.89H54.8a.89.89,0,0,1-.89-.89v-.89H66.39v.89Z"/></g></g></svg>