<svg xmlns="http://www.w3.org/2000/svg" viewBox="0 0 789.82 151"><defs><style>.cls-1{font-size:39px;font-family:Montserrat-SemiBold, Montserrat;font-weight:700;}.cls-1,.cls-7{letter-spacing:0.02em;}.cls-2{letter-spacing:0.01em;}.cls-3,.cls-4{letter-spacing:0.02em;}.cls-4{fill:#d17d66;}.cls-5{letter-spacing:0.01em;}.cls-6{letter-spacing:-0.01em;}.cls-8{fill:#f29375;}.cls-9{fill:#fff;}</style></defs><title>open-educational-resources</title><g id="OPEN_EDUCATIONAL_RESOURCES-2" data-name="OPEN EDUCATIONAL RESOURCES"><text class="cls-1" transform="translate(141.27 59.59)">O<tspan class="cls-2" x="33.73" y="0">P</tspan><tspan class="cls-3" x="62.56" y="0">EN </tspan><tspan class="cls-4"><tspan x="0" y="46">EDU</tspan><tspan class="cls-5" x="91.81" y="46">C</tspan><tspan class="cls-6" x="120.47" y="46">A</tspan><tspan class="cls-7" x="149.21" y="46">TIONAL RESOURCES</tspan></tspan></text><g id="module_block_copy_6" data-name="module block copy 6"><rect class="cls-8" width="119" height="151"/></g><g id="grad_cap" data-name="grad cap"><path class="cls-9" d="M101.13,105.57a5.49,5.49,0,0,0-1.71-3.5,5.46,5.46,0,0,0,1.74-4,5.51,5.51,0,0,0-3-4.89v-29l7-2.47L60.32,45.57,15.16,61.74,60.32,77.57,93.16,66v27.2a5.49,5.49,0,0,0-1.27,8.89,5.49,5.49,0,0,0-1.71,3.5h0l-1,10h13l-1-10Z"/><path class="cls-9" d="M60.33,82.87l-1.66-.58L33.2,73.36l2,22.21c0,4.42,11.19,8,25,8s25-3.58,25-8l2-22.16L62,82.29Z"/></g></g></svg>