<svg xmlns="http://www.w3.org/2000/svg" viewBox="0 0 789.82 151"><defs><style>.cls-1{font-size:39px;font-family:Montserrat-SemiBold, Montserrat;font-weight:700;letter-spacing:0.02em;}.cls-2{letter-spacing:0.01em;}.cls-3{letter-spacing:0.02em;}.cls-4{fill:#37a576;}.cls-5{letter-spacing:0em;}.cls-6{letter-spacing:0.01em;}.cls-7{letter-spacing:0.01em;}.cls-8{fill:#3ab585;}.cls-9{fill:#fff;}</style></defs><title>open-advocacy</title><g id="ADVOCACY"><text class="cls-1" transform="translate(141.27 59.59)">O<tspan class="cls-2" x="33.73" y="0">P</tspan><tspan class="cls-3" x="62.56" y="0">EN </tspan><tspan class="cls-4"><tspan x="0" y="46">A</tspan><tspan class="cls-5" x="30.11" y="46">DV</tspan><tspan x="90.83" y="46">O</tspan><tspan class="cls-6" x="124.57" y="46">C</tspan><tspan class="cls-7" x="153.23" y="46">AC</tspan><tspan class="cls-3" x="211.81" y="46">Y</tspan></tspan></text><g id="module_block_copy_7" data-name="module block copy 7"><rect class="cls-8" width="119" height="151"/></g></g><g id="Layer_45" data-name="Layer 45"><rect class="cls-9" x="91.12" y="59.42" width="16.15" height="2.94" transform="translate(-15.1 38.9) rotate(-20.65)"/><rect class="cls-9" x="81.63" y="44.49" width="14.46" height="2.94" transform="translate(-6.67 75.65) rotate(-44.62)"/><rect class="cls-9" x="99.82" y="71.7" width="2.94" height="14.46" transform="translate(16.64 175.5) rotate(-86.69)"/><path class="cls-9" d="M44.94,93.89l-10.08,3.8,8.55,12.82a1.44,1.44,0,0,0,1.74.57L52,108.49a1.46,1.46,0,0,0,.71-2.18L45.41,95.12Z"/><path class="cls-9" d="M32.92,95.29l13.74-5.18L40.44,73.62,26.7,78.8a6,6,0,0,0-3.42,7.57l2.07,5.5A6,6,0,0,0,32.92,95.29Z"/><path class="cls-9" d="M74.07,44a1.49,1.49,0,0,0-1.34.35L42.89,71.79,49.7,89.87l40.57.95a1.46,1.46,0,0,0,1.51-1.42,1.56,1.56,0,0,0-.1-.57l-16.57-44A1.51,1.51,0,0,0,74.07,44ZM51.22,75.73l-2-2.18L70.37,54.61l1.95,2.18Z"/></g></svg>