<svg xmlns="http://www.w3.org/2000/svg" viewBox="0 0 789.82 151"><defs><style>.cls-1{font-size:39px;font-family:Montserrat-SemiBold, Montserrat;font-weight:700;}.cls-1,.cls-9{letter-spacing:0.02em;}.cls-2{letter-spacing:0.01em;}.cls-3{letter-spacing:0.02em;}.cls-4{letter-spacing:0.01em;}.cls-5{letter-spacing:0.01em;}.cls-10,.cls-6{fill:#97539e;}.cls-6{letter-spacing:0.01em;}.cls-7{letter-spacing:0.02em;}.cls-8{letter-spacing:-0.02em;}.cls-11{fill:#fff;}</style></defs><title>open-access-research-papers</title><g id="OPEN_ACCESS" data-name="OPEN ACCESS"><text class="cls-1" transform="translate(141.27 59.59)">O<tspan class="cls-2" x="33.73" y="0">P</tspan><tspan class="cls-3" x="62.56" y="0">EN </tspan><tspan class="cls-4" x="133.73" y="0">A</tspan><tspan class="cls-5" x="163.45" y="0">C</tspan><tspan x="192.11" y="0">CESS</tspan><tspan class="cls-6"><tspan x="0" y="46">T</tspan><tspan class="cls-7" x="23.98" y="46">O RESEARCH </tspan><tspan class="cls-8" x="311.18" y="46">P</tspan><tspan class="cls-9" x="338.63" y="46">A</tspan><tspan class="cls-4" x="368.74" y="46">P</tspan><tspan class="cls-9" x="397.56" y="46">ERS</tspan></tspan></text><g id="module_block_copy_3" data-name="module block copy 3"><rect class="cls-10" width="119" height="151"/></g><g id="papers"><path class="cls-11" d="M101.34,49.77c0-.15-.07-.28-.11-.43a3.25,3.25,0,0,0-.15-.4c0-.13-.13-.26-.18-.39l-.11-.19c-.08-.13-.17-.24-.25-.35a4,4,0,0,0-.76-.78,2.45,2.45,0,0,0-.37-.26l-.18-.11a2.63,2.63,0,0,0-.41-.21,3.75,3.75,0,0,0-.43-.16L80.33,40.37l-.67-4.94a4.53,4.53,0,0,0-5.15-3.83l-14.3,1.94L49.43,29.85a4.92,4.92,0,0,0-1.35-.24h-.45l-.22,0a4.72,4.72,0,0,0-2.58,1.15,4.36,4.36,0,0,0-1.24,1.85L42.42,35.9,23.06,38.53a4.55,4.55,0,0,0-3.95,5.08l5.64,41.58L19.09,101a4.46,4.46,0,0,0-.18.67,4.53,4.53,0,0,0-.08.89,3.34,3.34,0,0,0,.06.65,3.29,3.29,0,0,0,.09.43c0,.07,0,.15.06.2a4,4,0,0,0,.35.8l.11.19a4.37,4.37,0,0,0,.52.68c.09.11.2.21.31.32a4.44,4.44,0,0,0,.54.4l.19.12a3.91,3.91,0,0,0,.41.2,3.07,3.07,0,0,0,.42.17l6.05,2,.87,6.47A4.54,4.54,0,0,0,34,119l17.41-2.36,19.47,6.64a4.09,4.09,0,0,0,.69.17,4.88,4.88,0,0,0,.69.07,4.17,4.17,0,0,0,1.11-.09,4.54,4.54,0,0,0,.63-.18,5.51,5.51,0,0,0,.61-.28,4.92,4.92,0,0,0,.74-.48,4.66,4.66,0,0,0,1.43-2l2.73-7.62,6-.82a4.56,4.56,0,0,0,4-5.08L87.25,91.2l.33-.93L101.21,52.2a3.62,3.62,0,0,0,.22-.89,3.42,3.42,0,0,0,0-.45,3.61,3.61,0,0,0,0-.87A1,1,0,0,1,101.34,49.77ZM75,35.62a.4.4,0,0,1,.46.35l.39,2.88-7-2.38ZM23.25,43.06a.42.42,0,0,1,.35-.47l17.25-2.33L36.8,51.55l-6.3.85.55,4.06,4.2-.57L27.81,76.66Zm10.18,72a.41.41,0,0,1-.47-.35l-.59-4.41,5.3,1.8,5,1.7Zm51.8-7.45a.42.42,0,0,1-.36.46l-3.87.52,2.52-7,.63-1.78Zm12-56.73L82.94,90.77l-6.6,18.42-3.58,10a.41.41,0,0,1-.37.27h-.16l-11.69-4L27.33,104.2l-4-1.37a.13.13,0,0,1-.07,0l-.08-.05a.6.6,0,0,1-.09-.13.36.36,0,0,1,0-.32L26,94.13,29,85.58l16.47-46,1.56-4.34.46-1.3s0-.06,0-.07a.46.46,0,0,1,.33-.21.5.5,0,0,1,.17,0l3,1,8.69,2.95L74,42.52l6.9,2.34L97,50.31l.08,0a.51.51,0,0,1,.16.17A.65.65,0,0,1,97.24,50.85Z"/><polygon class="cls-11" points="48.25 49.44 86.02 62.25 87.41 58.38 49.64 45.56 48.25 49.44"/><polygon class="cls-11" points="44.09 61.05 81.87 73.86 83.26 69.98 45.48 57.17 44.09 61.05"/><polygon class="cls-11" points="39.99 72.47 77.77 85.28 79.16 81.41 41.38 68.59 39.99 72.47"/><polygon class="cls-11" points="35.76 84.28 73.54 97.1 74.93 93.22 37.16 80.41 35.76 84.28"/><polygon class="cls-11" points="32.3 93.97 70.07 106.78 71.47 102.9 33.69 90.09 32.3 93.97"/></g></g></svg>