<svg xmlns="http://www.w3.org/2000/svg" viewBox="0 0 789.82 151"><defs><style>.cls-1{font-size:39px;font-family:Montserrat-SemiBold, Montserrat;font-weight:700;letter-spacing:0.02em;}.cls-2{letter-spacing:0.01em;}.cls-3{letter-spacing:0.02em;}.cls-4{fill:#d94043;}.cls-5{letter-spacing:0.01em;}.cls-6{letter-spacing:-0.01em;}.cls-7{fill:#fff;stroke:#d94043;stroke-miterlimit:10;}</style></defs><title>open-research-data</title><g id="OPEN_RESEARCH_DATA-2" data-name="OPEN RESEARCH DATA"><text class="cls-1" transform="translate(141.16 62.91)">O<tspan class="cls-2" x="33.73" y="0">P</tspan><tspan class="cls-3" x="62.56" y="0">EN</tspan><tspan class="cls-4"><tspan x="0" y="46">RESEARCH </tspan><tspan class="cls-5" x="241.8" y="46">D</tspan><tspan class="cls-6" x="274.52" y="46">AT</tspan><tspan class="cls-3" x="326.27" y="46">A</tspan></tspan></text><g id="module_block_copy" data-name="module block copy"><rect class="cls-4" width="119" height="151"/></g><path class="cls-7" d="M42.55,91.5h-28v-15h28Zm2,0h30v-15h-30Zm0,17h30v-15h-30Zm-2-49h-28v15h28Zm2,15h30v-15h-30Zm53-32h-76a7,7,0,0,0-7,7v8h90v-8A7,7,0,0,0,97.55,42.5Zm-21,32h28v-15h-28Zm-34,19h-28v8a7,7,0,0,0,7,7h21Zm34-2h28v-15h-28Zm0,17h21a7,7,0,0,0,7-7v-8h-28Z"/></g></svg>