<svg xmlns="http://www.w3.org/2000/svg" viewBox="0 0 789.82 151"><defs><style>.cls-1{font-size:39px;font-family:Montserrat-SemiBold, Montserrat;font-weight:700;letter-spacing:0.01em;}.cls-2{letter-spacing:0.02em;}.cls-3{letter-spacing:0.01em;}.cls-4{letter-spacing:0.02em;}.cls-5,.cls-6{fill:#5962a6;}.cls-5{letter-spacing:0.01em;}.cls-7{fill:#fff;}</style></defs><title>public-engagement-w-science</title><g id="PUBLIC_ENGAGEMENT" data-name="PUBLIC ENGAGEMENT"><text class="cls-1" transform="translate(141.27 59.59)">P<tspan class="cls-2" x="28.82" y="0">UBLIC ENG</tspan><tspan class="cls-3" x="260.09" y="0">A</tspan><tspan class="cls-4" x="289.81" y="0">GEMENT</tspan><tspan class="cls-5"><tspan x="0" y="46">W</tspan><tspan class="cls-4" x="44.93" y="46">ITH SCIENCE</tspan></tspan></text><g id="module_block_copy_5" data-name="module block copy 5"><rect class="cls-6" width="119" height="151"/></g><path class="cls-7" d="M88.53,103.88a39.84,39.84,0,0,1-13,8.74,40.28,40.28,0,0,1-15.35,3,39.78,39.78,0,0,1-15.26-3A40.14,40.14,0,0,1,20,75.5a38.3,38.3,0,0,1,3.11-15.26,40.54,40.54,0,0,1,8.65-13.12A40,40,0,0,1,44.9,38.47a38.23,38.23,0,0,1,15.26-3.11,38.7,38.7,0,0,1,15.35,3.11,39.6,39.6,0,0,1,13,8.65,40.83,40.83,0,0,1,8.75,13.12,40.14,40.14,0,0,1-8.75,43.64ZM34.6,101.06a42.52,42.52,0,0,0,3.88,3.4l-.58-1.56.58-2.13.68-2s0-1.36-.68-1.45S36.54,96,36.15,96a3.85,3.85,0,0,1-1.55-.59c-.39-.29-1.17-.58-1.46-1a7.94,7.94,0,0,1-1-1.85,4,4,0,0,0-.88-1.45v-.78L30.22,90a2.34,2.34,0,0,0-1-.68c-.87-.39-1.07-.78-1.84-1.07a6.45,6.45,0,0,1-1.36-.87A36.58,36.58,0,0,0,34.6,101.06ZM25,67.53h.38l.88-1.07a3.71,3.71,0,0,1,.49-1.65,3.12,3.12,0,0,0,.48-1.55c.1-.59.68.09,1.36-2a5.43,5.43,0,0,1,.29-.87c.1-.19,1.75-1.17,1.85-1.36.58-.78.39-2.14,1.65-3.4s0-1-1.07-.59.88-1.45,1.56-1.65,4.27-1.94,4.27-1.94a1.52,1.52,0,0,0,.49-.68l.87-.49-.29-1c.1-.48-.29-.58-.58-1.46a.56.56,0,0,1-.1-.39A35.15,35.15,0,0,0,25,67.53ZM57.82,50.72c2.14.39,2.14-.1,1.56,1.36a4,4,0,0,0-1.27.68c-.48.49-1.16.58-1.36,1.07a1.07,1.07,0,0,0,.49,1.46l-.58,1.07-.49.48-1.75.68c-2.14.78-.29,1.95-1.55,1.95-.59,0-.39.77-.39.87l1.36,1.26a14,14,0,0,0,2.23.1A2.26,2.26,0,0,0,57.82,61c.39-.58,1.07-1.85,1.27-2.24a1.94,1.94,0,0,1,1.16-1.16c.68-.39.78-.78,1.07-1S63.17,56,63.17,56s-.1,1.36.29,1.55c.19.1.87.29,1.75.58,1.26.39,1.36.1,1.26-.48-.09-.39.39-.49-1.46-1.85l-.29-1.16s1.75.68,2.24.77,1.75.78,1.75.78c.39.58-.39,1.17-.1,1.56,1.85,2.81,1.46.29,2.62.09a8.42,8.42,0,0,1,1.17-.87,5,5,0,0,0,1.07-.68c.49-.29-.29-1.07.1-1.75a2.66,2.66,0,0,1,1.36-1.26c.29-.2,1.45-1.07,1.45-1.07h1.46c-.58.68-1.16,1.55-.68,1.26s1.65.29,2.24.58.39,1.17.39,1.17-1.46.19-2.34.19a8.62,8.62,0,0,0-2.23.49l-1,.78s-.78.39-.49,1a4.34,4.34,0,0,0,1.46,1.85c.58.58,1.07,1.26,1.36.87S78,59.08,78,59.08a3.47,3.47,0,0,0,.19,1.55c.2.58.39,1.46.39,1.46s-1.26.19-.87.39a9.71,9.71,0,0,1,1.36,1.36,30.28,30.28,0,0,1,2.52,2c.59.58.2,1.94.68,2.62s1.85.68,2,.78c.29.49.38,1.26.77,1.56.88.58,2.24-.39,2.53-.68,1-.88,1.85-1.66,2.72-2.53.68-.58,1.07-1.07.68-1.36a17.3,17.3,0,0,1-1.46-1.56c-1.06.39-2.33,0-2.33-.39a10.49,10.49,0,0,0-1.36-1.75s.1-.29,1.07.1,1.85,1.27,2.62,1.07a3.74,3.74,0,0,1,2.14.49,10.61,10.61,0,0,1,2,1.07A5.36,5.36,0,0,1,95,66.37l.2.19a42.08,42.08,0,0,0-1.65-4.86A36.43,36.43,0,0,0,76.09,43c-.39.29-.77.58-1.07.39a6.62,6.62,0,0,0-1.36-.87c.3-.3-.09-.59-.48-.78s-.88-.29-1.27-.49l-2.72.29s-1.45.2-1.84.3a17.14,17.14,0,0,1-1.75.38c-.59.1-1.95,1.36-2.43,1.56s-1.46,1.07-2,1.07-1.16,1.16-1.16,1.16-.58,1.75.1,1.36,1.74-.68,1.84-.29a13.71,13.71,0,0,0,1,1.17c.2.39,1.66.1,1.66.1l.58-1.17a7.14,7.14,0,0,1,.58-1l1,1.46a3.9,3.9,0,0,1,0,1.55,6.86,6.86,0,0,1-.68.58H63.85c-.78-.38-1.56-.68-1.56-.68a11.48,11.48,0,0,1-1.36.49l-2-.19Zm38.49,25c-.1.1-.29.2-.49.39-.58.39-.78.88-1.46,1.46s-.48.29-1.26,1.75a4.27,4.27,0,0,0-.78,2.14,8.89,8.89,0,0,1-.48,2c-.2.39-1,.87-1.27,1.26a3.62,3.62,0,0,1-1.36.88c-.39.09-1.36,1.65-1.94,1.94S87,89.11,87,89.11l.48.87.39.68.39.49.88,1.55-.2,1.75a3.29,3.29,0,0,0,1.46.39h.39A36,36,0,0,0,96.31,75.69Zm-18.37,14a23.92,23.92,0,0,0,1.65-2.24,7.19,7.19,0,0,0,.58-1.75l-2.62.39c-.87-1.46-3.4-4.66-3.79-5.44a12.22,12.22,0,0,1-1.07-2.72,22,22,0,0,0-1.07-2.72,13.47,13.47,0,0,0-1.45-2.14c-.3-.49-1.27-.78-1.85-1.17S64,70.64,64,70.64s-1.16-.68-1.46-.39c-1.45,1.17-4.85.39-5.63.1s-1.17-.68-1.17-1.17a22.11,22.11,0,0,0-.68-2.52,14.93,14.93,0,0,1-1.84.29,5.82,5.82,0,0,1-1.56-.49,9.09,9.09,0,0,0-2.14.39,17.16,17.16,0,0,1-2.14.88,8.55,8.55,0,0,1-1.65.29c-1.26-.59-2.33.87-2.62,1.45s-.88.88-.88,1.56-1.06,1.46-1.45,1.75a10.43,10.43,0,0,0-2.53,1.85,8.46,8.46,0,0,0-1,2.42,7.88,7.88,0,0,0-.2,2.34,21.87,21.87,0,0,0,0,2.43,17.72,17.72,0,0,0,2.24,3.88,9.86,9.86,0,0,0,2,2A17.27,17.27,0,0,1,43.15,89a1.36,1.36,0,0,0,1.75.48c1.16-.48,2.33-.48,3.4-1.06s2.62-1.27,2.62-.39.59,1.45,1.46,1.16,2.33-1,2.24,0V90l-.1.39.19.78a5.2,5.2,0,0,1,.2,1,2.42,2.42,0,0,0,.29,1.65c.49.39,1.65,1.17,1.65,1.65a7.89,7.89,0,0,0,.39,2.43,2.81,2.81,0,0,1,.29,2.14,22.38,22.38,0,0,0-.78,2.14,7.14,7.14,0,0,0-.19,1.75,5.44,5.44,0,0,0,1.26,1.75c.78.77.78,1.65,1.17,2.23a14.44,14.44,0,0,1,1.26,2.33l.88,1.46a30,30,0,0,0,5.15-.48,4,4,0,0,0,.58-.49c.58-.58.49-1.07,1.26-1.65s2-1.56,2-1.56l-.1-2.23,1.75-2.34,1.36-1.36s1.16-1.55,1-2.13-.39-3.6-.39-3.6a19.08,19.08,0,0,1,1-1.85c.49-.68.49-1.36,1.36-2.13.29-.2.49-.49.78-.68C77.26,90.66,77.55,90.17,77.94,89.69Z"/></g></svg>