<svg xmlns="http://www.w3.org/2000/svg" viewBox="0 0 789.82 151"><defs><style>.cls-1{font-size:39px;letter-spacing:0.02em;}.cls-1,.cls-4{fill:#1889ab;}.cls-1,.cls-5{font-family:Montserrat-SemiBold, Montserrat;font-weight:700;}.cls-2{letter-spacing:0.01em;}.cls-3{letter-spacing:0.02em;}.cls-5{font-size:29px;fill:#707070;letter-spacing:0.02em;}.cls-6{letter-spacing:0.01em;}.cls-7{letter-spacing:-0.01em;}.cls-8{letter-spacing:-0.05em;}.cls-9{letter-spacing:0.01em;}.cls-10{letter-spacing:0.02em;}.cls-11{fill:#fff;}</style></defs><title>reproducible-research</title><g id="REPRODUCIBLE_RESEARCH_DATA_ANALYSIS-2" data-name="REPRODUCIBLE RESEARCH &amp; DATA ANALYSIS"><text class="cls-1" transform="translate(141.16 44.77)">RE<tspan class="cls-2" x="56.43" y="0">P</tspan><tspan class="cls-3" x="85.25" y="0">RODUCIBLE </tspan><tspan x="0" y="46">RESEARCH </tspan></text><g id="module_block" data-name="module block"><rect class="cls-4" width="119" height="151"/></g><text class="cls-5" transform="translate(143.27 130.42)">&amp; <tspan class="cls-6" x="29.81" y="0">D</tspan><tspan class="cls-7" x="54.14" y="0">AT</tspan><tspan x="92.63" y="0">A ANA</tspan><tspan class="cls-8" x="192.62" y="0">L</tspan><tspan class="cls-9" x="208.54" y="0">Y</tspan><tspan class="cls-10" x="227.94" y="0">SIS</tspan></text><path id="stack_icon" data-name="stack icon" class="cls-11" d="M94.48,77.3a1.8,1.8,0,0,0-.89-1.77L80,66.68l13.58-8.86a3.91,3.91,0,0,0,.89-2.36,1.8,1.8,0,0,0-.89-1.77L60.24,31.85a1.8,1.8,0,0,0-2.37,0L24.52,53.69a2.11,2.11,0,0,0-.89,1.77,1.78,1.78,0,0,0,.89,1.77L38.1,66.09,24.52,74.94a4,4,0,0,0-.89,2.36,1.8,1.8,0,0,0,.89,1.78L38.1,87.93,24.52,96.79a3.91,3.91,0,0,0-.89,2.36,1.8,1.8,0,0,0,.89,1.77l33.06,21.84a2.47,2.47,0,0,0,2.36,0l33.65-21.84a2.21,2.21,0,0,0,0-3.54L80,88.52l13.58-8.85A4,4,0,0,0,94.48,77.3ZM75.58,90.88,88,99.15,59.05,118,30.13,98.85l12.39-8.26,15.35,10a2.49,2.49,0,0,0,2.37,0ZM59.05,96.49,30.13,77.3,42.52,69l15.35,10a2.57,2.57,0,0,0,2.37,0L75.58,69,88,77.3Z"/></g></svg>